<?xml version="1.0" standalone="no"?>
<!DOCTYPE svg PUBLIC "-//W3C//DTD SVG 20010904//EN"
 "http://www.w3.org/TR/2001/REC-SVG-20010904/DTD/svg10.dtd">
<svg version="1.0" xmlns="http://www.w3.org/2000/svg"
 width="1250.000000pt" height="1280.000000pt" viewBox="0 0 1250.000000 1280.000000"
 preserveAspectRatio="xMidYMid meet">
<metadata>
Created by potrace 1.15, written by Peter Selinger 2001-2017
</metadata>
<g transform="translate(0.000000,1280.000000) scale(0.100000,-0.100000)"
fill="#000000" stroke="none">
<path d="M7462 12738 c-21 -43 -52 -84 -96 -126 -58 -56 -68 -62 -108 -62 -23
0 -104 -7 -178 -15 -114 -12 -137 -17 -152 -34 -9 -12 -21 -21 -28 -21 -6 0
-16 -13 -21 -30 -8 -21 -17 -30 -34 -30 -59 0 -103 -93 -112 -237 l-6 -92 58
-57 59 -57 105 5 c120 6 176 24 190 61 7 18 41 40 128 82 l118 57 135 -6 c134
-5 220 -20 299 -52 40 -16 55 -34 28 -34 -22 0 -382 -98 -522 -141 -172 -54
-261 -91 -340 -138 -42 -26 -65 -35 -65 -26 0 22 -85 89 -136 107 -205 71
-951 136 -1141 99 -39 -8 -43 -6 -43 12 0 10 14 35 31 55 l32 36 -6 109 c-8
136 -17 156 -82 176 -40 13 -54 24 -71 55 -13 22 -31 41 -41 42 -112 13 -380
57 -393 64 -21 11 -81 83 -140 168 l-44 62 -67 0 c-98 0 -128 -9 -170 -51 -50
-50 -62 -56 -144 -67 -124 -18 -130 -24 -236 -202 l-54 -91 -40 6 c-197 26
-773 68 -1735 125 -937 56 -1015 60 -1225 75 -282 20 -438 34 -510 46 -33 5
-89 15 -124 20 -65 11 -358 -4 -372 -19 -4 -4 -53 -67 -109 -141 l-103 -134
73 -261 c40 -143 73 -262 74 -263 0 0 93 5 206 13 321 22 778 28 1160 15 717
-25 1758 -70 1992 -87 l87 -7 -14 -28 c-12 -22 -15 -71 -15 -216 l0 -188 -67
-24 c-87 -31 -317 -148 -453 -231 -211 -128 -303 -208 -392 -343 -51 -78 -53
-83 -57 -161 -4 -104 16 -279 38 -331 10 -22 40 -64 67 -94 56 -62 66 -43 -79
-149 -127 -92 -291 -284 -359 -420 l-31 -63 6 -192 c8 -232 16 -272 67 -361
23 -39 39 -75 36 -81 -2 -7 -64 -54 -136 -105 -135 -96 -253 -211 -287 -280
-12 -23 -19 -66 -21 -125 -4 -117 21 -343 44 -386 30 -60 131 -172 213 -239
44 -36 81 -67 80 -70 0 -3 -85 -54 -189 -114 -308 -178 -430 -272 -520 -406
-104 -153 -116 -254 -51 -412 71 -170 165 -301 270 -377 28 -20 50 -38 50 -41
1 -3 -29 -21 -67 -39 -152 -75 -284 -187 -323 -273 -21 -47 -24 -66 -22 -164
2 -126 23 -239 57 -316 29 -64 110 -190 179 -276 27 -35 48 -64 46 -66 -2 -1
-34 -19 -71 -40 -238 -131 -341 -390 -284 -711 18 -99 35 -148 85 -239 60
-110 60 -113 -4 -179 -41 -42 -70 -89 -122 -194 l-68 -138 2 -198 c2 -327 26
-514 83 -651 l31 -73 -28 -30 c-37 -39 -124 -197 -171 -309 l-37 -89 1 -145
c3 -255 61 -438 187 -591 51 -61 66 -72 139 -98 l27 -10 -39 -83 c-21 -46 -51
-119 -67 -163 l-28 -80 1 -298 1 -298 49 -71 c72 -104 158 -193 278 -287 l107
-84 82 -8 c203 -21 546 40 722 128 355 178 1051 901 1473 1528 44 66 177 266
295 445 244 370 346 511 625 871 l199 255 21 160 c30 225 36 293 27 360 -6 48
-13 64 -41 92 l-35 35 77 116 c181 272 332 481 681 941 6 8 14 12 18 9 3 -4
53 -195 110 -424 67 -272 110 -427 123 -444 19 -25 24 -26 98 -23 100 4 133
14 176 56 46 45 72 102 113 254 65 243 95 442 95 644 0 54 3 98 8 97 4 0 56
-80 116 -177 448 -724 519 -871 549 -1127 8 -70 10 -125 5 -132 -6 -7 16 -57
63 -140 155 -276 234 -395 603 -903 372 -513 435 -613 550 -867 134 -294 295
-518 711 -988 216 -244 666 -695 771 -772 123 -90 155 -96 499 -97 320 -1 307
-4 440 96 139 105 248 272 281 428 20 99 30 269 23 400 -6 116 -29 199 -101
366 l-41 97 36 34 c46 43 76 94 127 216 75 178 102 337 102 597 0 162 -5 199
-48 348 -6 19 5 34 67 91 129 120 167 212 190 461 12 137 7 287 -15 365 -38
142 -167 333 -300 444 -42 35 -76 70 -76 77 0 8 18 60 39 117 46 121 69 223
81 367 24 269 -52 473 -239 638 -70 63 -71 64 -57 91 49 94 72 222 86 486 12
229 6 276 -57 398 -54 104 -109 168 -215 248 -43 33 -78 64 -78 68 0 5 16 21
35 35 47 36 161 178 192 240 37 73 51 127 65 253 11 105 11 119 -6 166 -18 49
-75 148 -124 214 -30 40 -146 118 -324 217 -76 43 -138 80 -138 84 0 4 33 31
73 60 67 48 76 59 124 149 57 110 77 171 93 291 12 91 8 126 -22 187 -41 82
-193 269 -356 437 l-104 107 25 73 c15 40 32 100 39 133 17 85 17 386 -1 450
-45 161 -222 404 -384 529 l-79 61 6 291 7 291 -50 74 c-65 96 -135 179 -202
236 -144 123 -420 278 -597 334 l-104 32 6 31 c3 17 12 73 22 124 l16 92 37 0
c20 1 155 5 301 10 369 12 590 42 1054 140 522 110 687 128 1246 140 239 4
481 14 538 21 l102 12 58 53 c72 65 106 127 183 336 53 145 68 198 55 198 -2
0 -130 21 -283 47 l-278 47 -335 1 c-345 0 -456 -7 -840 -51 -585 -67 -1054
-139 -1995 -309 l-360 -65 -73 78 c-105 111 -193 225 -242 317 -24 44 -44 81
-45 83 -1 1 -50 7 -109 12 -106 9 -134 17 -171 50 -29 26 -79 38 -181 46 l-92
6 -30 -64z m-2452 -597 c47 -11 118 -32 157 -47 56 -22 74 -34 84 -58 24 -51
55 -66 170 -78 57 -6 105 -12 107 -14 2 -1 -10 -21 -27 -45 -17 -23 -31 -48
-31 -56 0 -7 -2 -13 -4 -13 -3 0 -56 35 -118 78 -211 146 -265 177 -388 223
-88 33 -70 36 50 10z m-641 -491 c85 -25 85 -24 -42 -69 l-88 -31 6 53 c9 71
12 79 32 73 10 -2 52 -14 92 -26z m4444 -841 c98 -34 162 -75 227 -147 l60
-67 0 -65 c0 -93 -5 -104 -70 -149 -32 -23 -61 -50 -65 -60 -7 -22 -90 -58
-205 -89 -222 -60 -999 -193 -1617 -276 -18 -3 -33 -2 -33 2 0 4 12 25 27 47
15 22 57 99 93 170 l66 130 95 33 c119 42 375 116 634 182 205 53 345 102 425
148 59 34 180 123 205 151 23 27 56 24 158 -10z m-5038 -93 c11 -7 32 -16 46
-19 14 -4 61 -30 105 -58 86 -57 159 -89 202 -89 41 0 72 -11 72 -25 0 -8 74
-22 233 -44 604 -85 690 -109 629 -174 l-21 -22 64 -82 64 -81 -147 -1 -147 0
-574 131 c-666 150 -698 159 -711 194 -5 13 -20 28 -33 33 -16 6 -26 20 -31
42 -8 43 21 74 127 135 43 25 81 52 84 60 6 17 13 18 38 0z m-145 -1005 c85
-17 237 -48 337 -70 218 -49 318 -65 523 -86 292 -30 505 -86 743 -193 l129
-58 45 -115 c77 -196 96 -278 90 -378 -8 -134 5 -125 -166 -116 -192 9 -285
20 -345 40 -27 9 -66 17 -85 17 -23 0 -40 6 -48 18 -19 27 -107 53 -388 116
-469 104 -1220 299 -1330 345 -39 16 -92 48 -119 72 l-48 42 15 35 c8 19 39
65 68 102 30 37 62 78 72 92 21 31 60 51 198 106 57 23 108 46 114 51 13 13
24 12 195 -20z m5840 -143 c49 -58 86 -135 101 -212 l12 -56 -40 -48 c-77 -91
-178 -154 -333 -205 -119 -40 -295 -88 -735 -201 -225 -58 -507 -132 -624
-164 l-215 -59 -14 -43 -14 -42 -52 5 c-28 3 -166 16 -306 28 -140 12 -256 23
-257 23 -5 3 -33 292 -33 339 0 44 6 65 33 109 17 30 43 77 56 106 15 31 31
52 41 52 9 0 20 4 26 9 18 17 244 90 326 106 46 8 175 29 288 45 113 17 228
39 255 49 30 12 90 22 147 25 189 12 840 129 1193 216 41 10 93 -20 145 -82z
m295 -1128 c124 -101 165 -164 165 -253 0 -47 -6 -62 -42 -117 -65 -97 -106
-134 -173 -159 -174 -65 -813 -209 -1197 -271 -156 -25 -258 -36 -433 -50
-155 -12 -252 -31 -299 -59 -28 -16 -65 -18 -413 -20 l-382 -2 -6 33 c-11 64
-45 331 -45 355 0 16 8 27 26 33 14 6 163 19 331 30 290 19 375 29 412 50 10
5 39 3 76 -6 77 -18 133 -18 264 2 220 32 504 115 1211 353 228 77 419 140
423 140 5 1 41 -26 82 -59z m-6522 -45 c362 -106 1302 -311 1467 -320 140 -7
619 -46 690 -56 41 -5 78 -15 82 -22 24 -38 68 -162 77 -219 17 -103 -12 -293
-46 -300 -18 -3 -270 6 -568 21 -172 9 -214 15 -445 65 -596 128 -742 175
-1309 425 -153 68 -195 91 -248 137 -34 31 -63 60 -63 65 0 22 86 138 143 192
33 31 62 57 63 57 2 0 72 -20 157 -45z m197 -1265 c523 -177 810 -257 1091
-304 l155 -26 215 15 c118 8 300 22 404 30 233 18 284 19 290 3 3 -7 11 -87
19 -178 17 -193 23 -179 -93 -238 -168 -88 -307 -131 -641 -198 -124 -25 -242
-50 -263 -55 -24 -7 -126 -6 -295 1 -332 14 -472 27 -493 46 -29 26 -115 53
-363 114 -271 66 -544 144 -686 197 -207 77 -315 153 -364 258 -23 47 -61 174
-54 180 2 1 109 53 238 114 129 61 271 131 315 155 l80 43 80 -30 c44 -16 208
-73 365 -127z m6318 91 c15 -10 74 -42 132 -70 84 -41 119 -65 178 -123 70
-68 73 -72 61 -99 -11 -28 -54 -71 -162 -162 -31 -27 -57 -54 -57 -61 0 -16
-30 -29 -134 -56 -78 -21 -136 -47 -136 -62 0 -38 -466 -170 -770 -217 -161
-25 -176 -26 -489 -56 l-265 -25 -185 31 c-226 37 -332 61 -577 133 -159 47
-263 73 -402 102 -22 4 -23 6 -20 146 l3 142 134 33 c97 24 193 38 355 53 121
11 242 22 268 24 44 5 47 3 74 -35 24 -35 29 -38 43 -25 20 17 39 20 311 51
625 70 847 106 1160 187 480 124 439 117 478 89z m-2888 -1129 c73 -63 138
-134 249 -271 91 -113 131 -175 131 -206 0 -25 -152 58 -184 100 -15 19 -48
46 -75 60 -27 15 -54 38 -60 51 -12 28 -54 48 -120 59 l-44 7 7 60 c8 83 28
188 35 188 3 0 31 -22 61 -48z m3426 -186 c102 -119 78 -330 -54 -477 -63 -70
-185 -160 -285 -209 -122 -60 -383 -121 -777 -181 -113 -17 -192 -22 -355 -23
l-210 -1 -50 29 c-163 95 -422 293 -522 398 -49 53 -93 123 -93 151 0 8 23 18
63 26 183 37 317 74 317 86 0 15 13 18 150 40 170 26 311 44 515 65 424 43
566 72 990 198 l130 39 73 -50 c40 -28 89 -69 108 -91z m-7821 12 c28 -6 95
-30 150 -54 55 -23 177 -63 270 -89 94 -25 235 -66 315 -90 344 -105 496 -132
775 -141 269 -8 335 -14 335 -30 0 -18 -5 -18 195 11 94 14 180 25 193 25 l22
0 -24 -47 c-46 -90 -78 -112 -413 -285 -210 -108 -211 -109 -320 -123 -217
-29 -334 -19 -698 59 -336 73 -408 97 -640 212 -167 84 -273 155 -359 242
l-69 70 8 75 7 75 54 36 c30 20 60 45 66 56 14 21 27 21 133 -2z m3289 -110
c4 -51 10 -103 13 -115 4 -18 -7 -30 -57 -67 -34 -25 -66 -46 -71 -46 -5 0
-16 18 -25 40 -9 22 -21 40 -26 40 -17 0 -3 114 18 145 18 28 110 95 130 95 7
0 14 -34 18 -92z m-3338 -1099 c274 -84 698 -179 1008 -224 197 -29 654 -55
665 -38 3 6 49 27 102 47 53 19 160 65 238 100 l142 64 -7 -36 c-10 -56 -50
-129 -110 -203 -44 -55 -264 -269 -351 -342 -59 -51 -889 -168 -1067 -151
-139 13 -335 83 -594 213 -119 60 -146 77 -166 110 -13 21 -42 52 -64 69 -45
36 -66 80 -83 176 -15 81 -9 92 104 181 45 36 82 65 83 65 1 0 46 -14 100 -31z
m7965 -5 c90 -53 132 -95 174 -175 l37 -70 -28 -81 c-34 -97 -79 -147 -181
-200 -189 -99 -425 -131 -973 -132 -309 -1 -380 2 -465 17 -139 25 -175 35
-175 52 0 8 -17 19 -37 25 -21 5 -105 28 -187 50 -237 64 -238 65 -369 241
-85 115 -112 157 -105 165 3 2 78 -21 169 -50 236 -78 332 -107 354 -107 98
-2 788 46 900 62 61 9 346 92 700 203 61 19 113 35 117 35 4 1 35 -15 69 -35z
m-8312 -1125 c148 -71 132 -66 381 -129 356 -90 423 -100 636 -100 104 0 288
7 409 15 268 18 585 20 585 4 0 -6 -19 -48 -42 -92 -77 -150 -237 -284 -493
-414 l-120 -60 -240 -7 c-360 -10 -566 9 -812 73 -127 34 -168 53 -273 125
-271 188 -269 186 -296 242 -24 49 -26 61 -20 132 10 113 14 125 45 143 15 9
43 42 62 72 19 31 38 57 43 57 4 0 65 -27 135 -61z m6644 -161 c70 -20 83 -21
146 -10 51 9 98 9 178 1 159 -15 1047 14 1273 41 45 5 125 27 198 55 l123 45
66 -57 c83 -74 95 -99 101 -201 4 -68 1 -93 -18 -145 -30 -83 -56 -124 -88
-139 -15 -7 -28 -23 -30 -35 -4 -27 10 -22 -242 -73 -330 -66 -512 -88 -946
-115 l-242 -14 -91 25 c-136 37 -218 74 -317 142 -113 77 -301 237 -425 362
-85 85 -103 109 -148 201 -28 57 -51 109 -51 115 0 6 98 -31 218 -82 119 -51
252 -103 295 -116z m-6711 -1133 c214 -73 284 -90 438 -105 175 -17 506 -23
625 -11 128 12 325 55 336 73 6 9 36 9 136 -1 152 -14 183 -20 183 -33 0 -5
-28 -38 -62 -72 -77 -76 -182 -129 -536 -271 l-243 -97 -247 -1 c-287 -2 -315
3 -504 85 -113 49 -123 56 -185 125 -36 40 -71 73 -78 73 -18 0 -75 74 -91
118 -7 20 -13 70 -14 110 0 70 1 72 25 72 13 0 111 -29 217 -65z m8632 -77
c-15 -72 -76 -274 -94 -315 -24 -55 -95 -101 -290 -187 -216 -94 -205 -92
-317 -79 -206 23 -434 134 -663 322 -49 41 -90 77 -90 81 0 4 91 15 201 25
176 16 202 21 207 37 2 9 12 20 21 22 29 9 304 26 429 26 103 0 129 3 162 20
26 13 93 27 192 40 84 12 169 25 188 29 60 15 62 14 54 -21z m-8468 -1151 c38
-13 108 -34 155 -47 70 -18 89 -27 98 -46 15 -34 49 -44 144 -44 76 -1 81 -2
62 -16 -42 -33 -194 -101 -288 -129 -77 -23 -102 -26 -120 -17 -12 6 -40 16
-62 23 -66 20 -112 47 -136 80 l-22 31 22 68 c20 64 53 120 70 120 4 0 39 -11
77 -23z m8330 -132 c13 -27 29 -73 35 -102 l12 -52 -37 -46 c-55 -66 -83 -78
-208 -83 -165 -7 -164 -7 -264 111 -90 108 -147 188 -158 223 l-7 21 93 -24
c129 -34 312 -38 378 -7 95 43 94 43 114 25 10 -9 29 -38 42 -66z"/>
</g>
</svg>
